<svg width="42" height="42" viewBox="0 0 42 42" fill="none" xmlns="http://www.w3.org/2000/svg">
<g id="vuesax/bold/lamp-charge">
<g id="lamp-charge">
<path id="Vector" d="M26.7045 38.5C26.5995 38.5 26.477 38.4825 26.372 38.4475C22.8545 37.45 19.162 37.45 15.6445 38.4475C14.997 38.6225 14.3145 38.255 14.1395 37.6075C13.947 36.96 14.332 36.2775 14.9795 36.1025C18.9345 34.9825 23.0995 34.9825 27.0545 36.1025C27.702 36.295 28.087 36.96 27.8945 37.6075C27.7195 38.15 27.2295 38.5 26.7045 38.5Z" fill="white"/>
<path id="Vector_2" d="M33.6173 11.13C31.7973 7.45502 28.2798 4.74252 24.2023 3.85002C19.9323 2.90502 15.5573 3.92002 12.2148 6.61502C8.85477 9.29252 6.94727 13.3 6.94727 17.5875C6.94727 22.12 9.65977 26.8625 13.7548 29.61V31.0625C13.7373 31.5525 13.7198 32.305 14.3148 32.9175C14.9273 33.5475 15.8373 33.6175 16.5548 33.6175H25.5323C26.4773 33.6175 27.1948 33.355 27.6848 32.865C28.3498 32.1825 28.3323 31.3075 28.3148 30.835V29.61C33.7398 25.9525 37.1523 18.235 33.6173 11.13ZM24.0098 20.335L22.1373 23.59C21.8923 24.01 21.4548 24.255 20.9998 24.255C20.7723 24.255 20.5448 24.2025 20.3523 24.08C19.7223 23.7125 19.5123 22.9075 19.8623 22.295L21.3498 19.705H19.8798C19.0048 19.705 18.2873 19.32 17.9023 18.6725C17.5173 18.0075 17.5523 17.2025 17.9898 16.4325L19.8623 13.1775C20.2298 12.5475 21.0348 12.3375 21.6473 12.6875C22.2773 13.055 22.4873 13.86 22.1373 14.4725L20.6498 17.0625H22.1198C22.9948 17.0625 23.7123 17.4475 24.0973 18.095C24.4823 18.76 24.4473 19.5825 24.0098 20.335Z" fill="white"/>
</g>
</g>
</svg>
