<svg width="42" height="42" viewBox="0 0 42 42" fill="none" xmlns="http://www.w3.org/2000/svg">
<g id="vuesax/bold/radar">
<g id="radar">
<path id="Vector" d="M21.0009 25.165C23.3012 25.165 25.1659 23.3003 25.1659 21C25.1659 18.6998 23.3012 16.835 21.0009 16.835C18.7007 16.835 16.8359 18.6998 16.8359 21C16.8359 23.3003 18.7007 25.165 21.0009 25.165Z" fill="white"/>
<path id="Vector_2" d="M35.0005 32.8125C34.7205 32.8125 34.458 32.725 34.213 32.55C33.6355 32.1125 33.513 31.29 33.9505 30.7125C36.068 27.895 37.188 24.535 37.188 21C37.188 17.465 36.068 14.105 33.9505 11.2875C33.513 10.71 33.6355 9.88749 34.213 9.44999C34.7905 9.01249 35.613 9.13499 36.0505 9.71249C38.518 12.985 39.813 16.8875 39.813 21C39.813 25.1125 38.518 29.015 36.0505 32.2875C35.788 32.6375 35.403 32.8125 35.0005 32.8125Z" fill="white"/>
<path id="Vector_3" d="M7 32.8125C6.5975 32.8125 6.2125 32.6375 5.95 32.2875C3.4825 29.015 2.1875 25.1125 2.1875 21C2.1875 16.8875 3.4825 12.985 5.95 9.71249C6.3875 9.13499 7.21 9.01249 7.7875 9.44999C8.365 9.88749 8.4875 10.71 8.05 11.2875C5.9325 14.105 4.8125 17.465 4.8125 21C4.8125 24.535 5.9325 27.895 8.05 30.7125C8.4875 31.29 8.365 32.1125 7.7875 32.55C7.56 32.725 7.28 32.8125 7 32.8125Z" fill="white"/>
<path id="Vector_4" d="M29.4009 28.6125C29.1209 28.6125 28.8584 28.525 28.6134 28.35C28.0359 27.9125 27.9134 27.09 28.3509 26.5125C29.5584 24.92 30.1884 23.0125 30.1884 21C30.1884 18.9875 29.5584 17.08 28.3509 15.4875C27.9134 14.91 28.0359 14.0875 28.6134 13.65C29.1909 13.2125 30.0134 13.335 30.4509 13.9125C31.9909 15.9775 32.8134 18.4275 32.8134 21C32.8134 23.5725 31.9909 26.04 30.4509 28.0875C30.1884 28.4375 29.8034 28.6125 29.4009 28.6125Z" fill="white"/>
<path id="Vector_5" d="M12.6 28.6125C12.1975 28.6125 11.8125 28.4375 11.55 28.0875C10.01 26.04 9.1875 23.5725 9.1875 21C9.1875 18.4275 10.01 15.96 11.55 13.9125C11.9875 13.335 12.81 13.2125 13.3875 13.65C13.965 14.0875 14.0875 14.91 13.65 15.4875C12.4425 17.08 11.8125 18.9875 11.8125 21C11.8125 23.0125 12.4425 24.92 13.65 26.5125C14.0875 27.09 13.965 27.9125 13.3875 28.35C13.16 28.525 12.88 28.6125 12.6 28.6125Z" fill="white"/>
</g>
</g>
</svg>
